DataRate=1500.000000
DataType=double
version=3
OpenSimVersion=4.3-2021-08-27-4bc7ad9
endheader
time	f1_1	f1_2	f1_3	p1_1	p1_2	p1_3	m1_1	m1_2	m1_3	f2_1	f2_2	f2_3	p2_1	p2_2	p2_3	m2_1	m2_2	m2_3	f3_1	f3_2	f3_3	p3_1	p3_2	p3_3	m3_1	m3_2	m3_3
3.97	0	0	0	-259.089987039566	398.0210380554199	1.304700013250113	0	0	0	0	0	-0	251.3170061707497	231.4150097742677	1.697000026702881	0	0	-0	114.1868629259563	-11.93281895127009	506.0997559493665	949.9620513916016	396.987003326416	4.582600176334381	-41981.39613663645	-55967.96414083528	6610.846512811647
3.970666666666666	0	0	0	-259.089987039566	398.0210380554199	1.304700013250113	0	0	0	0	0	-0	251.3170061707497	231.4150097742677	1.697000026702881	0	0	-0	112.7844436635536	-11.80726609234881	500.5645606724679	949.9620513916016	396.987003326416	4.582600176334381	-41684.02274060062	-56185.70774128746	6688.057031740578
3.971333333333333	0	0	0	-259.089987039566	398.0210380554199	1.304700013250113	0	0	0	0	0	-0	251.3170061707497	231.4150097742677	1.697000026702881	0	0	-0	111.7613893965557	-11.46423797753144	495.0744840092348	949.9620513916016	396.987003326416	4.582600176334381	-41726.88143996557	-54672.59438478155	6602.668923866001
3.972	0	0	0	-259.089987039566	398.0210380554199	1.304700013250113	0	0	0	0	0	-0	251.3170061707497	231.4150097742677	1.697000026702881	0	0	-0	110.1060850509438	-10.89543073927286	490.7834819776273	949.9620513916016	396.987003326416	4.582600176334381	-40993.00607489907	-54509.02619323324	6691.710803458144
3.972666666666667	0	0	0	-259.089987039566	398.0210380554199	1.304700013250113	0	0	0	0	0	-0	251.3170061707497	231.4150097742677	1.697000026702881	0	0	-0	109.1534072770795	-11.0289383971594	485.49853253036	949.9620513916016	396.987003326416	4.582600176334381	-40489.98333420193	-54115.05269124299	6839.955053564283
3.973333333333333	0	0	0	-259.089987039566	398.0210380554199	1.304700013250113	0	0	0	0	0	-0	251.3170061707497	231.4150097742677	1.697000026702881	0	0	-0	107.5675971343816	-10.66559693800153	478.2332978621308	949.9620513916016	396.987003326416	4.582600176334381	-39830.60397419873	-53132.65749820411	6853.407190843113
3.974	0	0	0	-259.089987039566	398.0210380554199	1.304700013250113	0	0	0	0	0	-0	251.3170061707497	231.4150097742677	1.697000026702881	0	0	-0	107.6983678236739	-10.37550689464083	472.625400419231	949.9620513916016	396.987003326416	4.582600176334381	-40237.14707435689	-53529.4768641538	6850.002488897392
3.974666666666666	0	0	0	-259.089987039566	398.0210380554199	1.304700013250113	0	0	0	0	0	-0	251.3170061707497	231.4150097742677	1.697000026702881	0	0	-0	106.553879859936	-9.517614047659521	466.3356820731826	949.9620513916016	396.987003326416	4.582600176334381	-38876.14058388438	-52407.32696023472	6547.441823122297
3.975333333333333	0	0	0	-259.089987039566	398.0210380554199	1.304700013250113	0	0	0	0	0	-0	251.3170061707497	231.4150097742677	1.697000026702881	0	0	-0	104.8512352744141	-9.735777253553216	464.3457898657289	949.9620513916016	396.987003326416	4.582600176334381	-38996.52434237085	-51886.54699674397	6554.865385055806
3.976	0	0	0	-259.089987039566	398.0210380554199	1.304700013250113	0	0	0	0	0	-0	251.3170061707497	231.4150097742677	1.697000026702881	0	0	-0	104.6811716540224	-8.888388632105773	457.1023456013913	949.9620513916016	396.987003326416	4.582600176334381	-38391.44223405438	-51311.07975882164	6418.353343350094
3.976666666666667	0	0	0	-259.089987039566	398.0210380554199	1.304700013250113	0	0	0	0	0	-0	251.3170061707497	231.4150097742677	1.697000026702881	0	0	-0	103.3320677401244	-8.362480367393095	450.656464084915	949.9620513916016	396.987003326416	4.582600176334381	-37841.54614832791	-50858.49065295892	6326.812319312832
3.977333333333333	0	0	0	-259.089987039566	398.0210380554199	1.304700013250113	0	0	0	0	0	-0	251.3170061707497	231.4150097742677	1.697000026702881	0	0	-0	101.9455517327395	-8.376716636730087	445.8079043174164	949.9620513916016	396.987003326416	4.582600176334381	-37193.8940669365	-50298.32469860652	6318.647730595517
3.978	0	0	0	-259.089987039566	398.0210380554199	1.304700013250113	0	0	0	0	0	-0	251.3170061707497	231.4150097742677	1.697000026702881	0	0	-0	101.2641409133531	-7.687322387420587	441.2395419611701	949.9620513916016	396.987003326416	4.582600176334381	-36751.44107324913	-49565.18106777587	6325.696270648022
3.978666666666666	0	0	0	-259.089987039566	398.0210380554199	1.304700013250113	0	0	0	0	0	-0	251.3170061707497	231.4150097742677	1.697000026702881	0	0	-0	99.36643814706711	-6.834713311721622	438.3696720063288	949.9620513916016	396.987003326416	4.582600176334381	-36180.359823142	-49150.09106801123	6234.582542090256
3.979333333333333	0	0	0	-259.089987039566	398.0210380554199	1.304700013250113	0	0	0	0	0	-0	251.3170061707497	231.4150097742677	1.697000026702881	0	0	-0	98.17155181919881	-6.964673203228811	429.5915187844896	949.9620513916016	396.987003326416	4.582600176334381	-35949.81484131741	-48573.58945747832	6194.666168177088
3.98	0	0	0	-259.089987039566	398.0210380554199	1.304700013250113	0	0	0	0	0	-0	251.3170061707497	231.4150097742677	1.697000026702881	0	0	-0	97.89913944191699	-6.47497197091203	423.7696634588175	949.9620513916016	396.987003326416	4.582600176334381	-35201.37421095817	-47966.51351092069	6086.311053149087
3.980666666666667	0	0	0	-259.089987039566	398.0210380554199	1.304700013250113	0	0	0	0	0	-0	251.3170061707497	231.4150097742677	1.697000026702881	0	0	-0	96.11917466816601	-6.810830315352796	416.9508190408389	949.9620513916016	396.987003326416	4.582600176334381	-35025.23177361981	-47114.08146743276	6309.424060613374
3.981333333333333	0	0	0	-259.089987039566	398.0210380554199	1.304700013250113	0	0	0	0	0	-0	251.3170061707497	231.4150097742677	1.697000026702881	0	0	-0	95.5832399497725	-5.991174869930714	411.8509222716659	949.9620513916016	396.987003326416	4.582600176334381	-34610.62584201078	-46640.1467050367	6128.103201612139
3.982	0	0	0	-259.089987039566	398.0210380554199	1.304700013250113	0	0	0	0	0	-0	251.3170061707497	231.4150097742677	1.697000026702881	0	0	-0	93.80108247235175	-6.328936842333839	405.5623155512304	949.9620513916016	396.987003326416	4.582600176334381	-34041.96262163288	-45877.38576116518	6162.392841550798
3.982666666666666	0	0	0	-259.089987039566	398.0210380554199	1.304700013250113	0	0	0	0	0	-0	251.3170061707497	231.4150097742677	1.697000026702881	0	0	-0	93.2067879784607	-6.458882005159916	397.9419107409817	949.9620513916016	396.987003326416	4.582600176334381	-33153.15221651174	-44753.84730295272	6523.668303512623
3.983333333333333	0	0	0	-259.089987039566	398.0210380554199	1.304700013250113	0	0	0	0	0	-0	251.3170061707497	231.4150097742677	1.697000026702881	0	0	-0	91.85700501300559	-6.073285614304104	390.2656829210705	949.9620513916016	396.987003326416	4.582600176334381	-32746.96627675435	-45012.85862148171	6508.413337718335
3.984	0	0	0	-259.089987039566	398.0210380554199	1.304700013250113	0	0	0	0	0	-0	251.3170061707497	231.4150097742677	1.697000026702881	0	0	-0	92.64671485404371	-5.160051518056841	382.637524203969	949.9620513916016	396.987003326416	4.582600176334381	-32414.23688029595	-43761.31872993016	5829.556247392714
3.984666666666667	0	0	0	-259.089987039566	398.0210380554199	1.304700013250113	0	0	0	0	0	-0	251.3170061707497	231.4150097742677	1.697000026702881	0	0	-0	89.45524783930682	-4.718756787078201	376.2752143076617	949.9620513916016	396.987003326416	4.582600176334381	-32035.71152899459	-43238.99637309152	5921.625872980024
3.985333333333333	0	0	0	-259.089987039566	398.0210380554199	1.304700013250113	0	0	0	0	0	-0	251.3170061707497	231.4150097742677	1.697000026702881	0	0	-0	89.04656911390143	-5.107127647300002	369.5365905013913	949.9620513916016	396.987003326416	4.582600176334381	-30895.78920992376	-42423.82958163113	5800.435633281803
3.986	0	0	0	-259.089987039566	398.0210380554199	1.304700013250113	0	0	0	0	0	-0	251.3170061707497	231.4150097742677	1.697000026702881	0	0	-0	87.03118412235895	-4.663181550268044	362.0173896845273	949.9620513916016	396.987003326416	4.582600176334381	-30866.74448256015	-41638.98839211207	6004.60778556974
3.986666666666666	0	0	0	-259.089987039566	398.0210380554199	1.304700013250113	0	0	0	0	0	-0	251.3170061707497	231.4150097742677	1.697000026702881	0	0	-0	87.52519486951427	-4.041645501111497	357.0036700192923	949.9620513916016	396.987003326416	4.582600176334381	-30407.43093043121	-40988.07644704482	5830.013805298766
3.987333333333333	0	0	0	-259.089987039566	398.0210380554199	1.304700013250113	0	0	0	0	0	-0	251.3170061707497	231.4150097742677	1.697000026702881	0	0	-0	84.77511355340985	-4.195995385544706	348.4031226932767	949.9620513916016	396.987003326416	4.582600176334381	-29385.75574585341	-40716.98627986021	5894.880375846073
3.988	0	0	0	-259.089987039566	398.0210380554199	1.304700013250113	0	0	0	0	0	-0	251.3170061707497	231.4150097742677	1.697000026702881	0	0	-0	84.03532572251687	-3.586234013096727	342.4796156722663	949.9620513916016	396.987003326416	4.582600176334381	-29296.70248157269	-39697.36071280816	5634.910713016446
3.988666666666667	0	0	0	-259.089987039566	398.0210380554199	1.304700013250113	0	0	0	0	0	-0	251.3170061707497	231.4150097742677	1.697000026702881	0	0	-0	82.65884417268504	-3.026684069085607	337.1053872876608	949.9620513916016	396.987003326416	4.582600176334381	-28868.78688239717	-38900.68389044243	5809.256756322404
3.989333333333333	0	0	0	-259.089987039566	398.0210380554199	1.304700013250113	0	0	0	0	0	-0	251.3170061707497	231.4150097742677	1.697000026702881	0	0	-0	81.42529548727683	-2.324154797727167	327.2530067074427	949.9620513916016	396.987003326416	4.582600176334381	-27648.30970460517	-38258.07583771279	5472.226393370152
3.99	0	0	0	-259.089987039566	398.0210380554199	1.304700013250113	0	0	0	0	0	-0	251.3170061707497	231.4150097742677	1.697000026702881	0	0	-0	80.16419529820433	-1.875888518715924	322.8737368826257	949.9620513916016	396.987003326416	4.582600176334381	-27156.48839620384	-38175.32157472957	5482.906485807786
3.990666666666666	0	0	0	-259.089987039566	398.0210380554199	1.304700013250113	0	0	0	0	0	-0	251.3170061707497	231.4150097742677	1.697000026702881	0	0	-0	78.92503012389298	-1.800058835614275	315.2604385387775	949.9620513916016	396.987003326416	4.582600176334381	-26266.58842919512	-38190.15372951738	5061.810523596676
3.991333333333333	0	0	0	-259.089987039566	398.0210380554199	1.304700013250113	0	0	0	0	0	-0	251.3170061707497	231.4150097742677	1.697000026702881	0	0	-0	76.82580136311078	-2.03422361973682	309.6551230316235	949.9620513916016	396.987003326416	4.582600176334381	-26428.68200352827	-35772.02209742252	5395.977168242174
3.992	0	0	0	-259.089987039566	398.0210380554199	1.304700013250113	0	0	0	0	0	-0	251.3170061707497	231.4150097742677	1.697000026702881	0	0	-0	76.33312561319453	-0.936648246176544	301.7801085016859	949.9620513916016	396.987003326416	4.582600176334381	-25445.70712474642	-34950.4413028719	5249.408332303113
3.992666666666667	0	0	0	-259.089987039566	398.0210380554199	1.304700013250113	0	0	0	0	0	-0	251.3170061707497	231.4150097742677	1.697000026702881	0	0	-0	73.80570346256374	-1.571149963861481	296.5873046434403	949.9620513916016	396.987003326416	4.582600176334381	-24952.51835017981	-35120.63209680919	5518.79410682232
